<svg width="22" height="19" viewBox="0 0 12 14" fill="none" xmlns="http://www.w3.org/2000/svg">
<path d="M9.87097 5.6H9.67742V3.8C9.67742 2.79218 9.29001 1.82563 8.60036 1.11299C7.91071 0.40036 6.97533 0 6 0C5.02467 0 4.08932 0.40036 3.39967 1.11299C2.71003 1.82563 2.32258 2.79218 2.32258 3.8V5.6H2.12903C1.56437 5.6 1.02285 5.83176 0.623582 6.2444C0.224307 6.65696 0 7.21656 0 7.8V11.8C0 12.3834 0.224307 12.943 0.623582 13.3556C1.02285 13.7682 1.56437 14 2.12903 14H9.87097C10.4356 14 10.9771 13.7682 11.3764 13.3556C11.7757 12.943 12 12.3834 12 11.8V7.8C12 7.21656 11.7757 6.65696 11.3764 6.2444C10.9771 5.83176 10.4356 5.6 9.87097 5.6ZM3.48387 3.8C3.48387 3.11044 3.74896 2.44912 4.22083 1.96152C4.6927 1.47393 5.33265 1.2 6 1.2C6.66735 1.2 7.3073 1.47393 7.77917 1.96152C8.25105 2.44912 8.51613 3.11044 8.51613 3.8V5.6H3.48387V3.8ZM10.8387 11.8C10.8387 12.0652 10.7367 12.3196 10.5553 12.5071C10.3738 12.6946 10.1276 12.8 9.87097 12.8H2.12903C1.87237 12.8 1.62622 12.6946 1.44474 12.5071C1.26325 12.3196 1.16129 12.0652 1.16129 11.8V7.8C1.16129 7.5348 1.26325 7.2804 1.44474 7.09288C1.62622 6.90536 1.87237 6.8 2.12903 6.8H9.87097C10.1276 6.8 10.3738 6.90536 10.5553 7.09288C10.7367 7.2804 10.8387 7.5348 10.8387 7.8V11.8Z" fill="#3B3B3B"/>
</svg>
