<svg width="22" height="17" viewBox="0 0 16 13" fill="none" xmlns="http://www.w3.org/2000/svg">
<path d="M15.7383 1.69273L15.1074 1.0495L9.26367 7.00783C8.5332 7.75263 7.30469 7.75263 6.57422 7.00783L0.730469 1.08335L0.0996094 1.72658L4.44922 6.16148L0.0996094 10.5964L0.730469 11.2396L5.08008 6.80471L5.94336 7.68492C6.47461 8.22658 7.17187 8.53127 7.90234 8.53127C8.63281 8.53127 9.33008 8.22658 9.86133 7.68492L10.7246 6.80471L15.0742 11.2396L15.7051 10.5964L11.3555 6.16148L15.7383 1.69273Z" fill="#3B3B3B"/>
<path d="M14.5098 12.3906H1.39453C0.630859 12.3906 0 11.7474 0 10.9688V1.42187C0 0.643229 0.630859 0 1.39453 0H14.5098C15.2734 0 15.9043 0.643229 15.9043 1.42187V10.9688C15.9043 11.7474 15.2734 12.3906 14.5098 12.3906ZM1.36133 0.914062C1.0957 0.914062 0.896484 1.11719 0.896484 1.38802V10.9349C0.896484 11.2057 1.0957 11.4089 1.36133 11.4089H14.4766C14.7422 11.4089 14.9414 11.2057 14.9414 10.9349V1.38802C14.9414 1.11719 14.7422 0.914062 14.4766 0.914062H1.36133Z" fill="#3B3B3B"/>
</svg>
